<svg xmlns="http://www.w3.org/2000/svg" viewBox="0 0 1072 528" width="1072" height="528">
  <g fill="#B9E266" fill-rule="evenodd">
    <path d="M420,416 L416,414 L404,414 L403,415 L392,416 L383,419 L386,424 L388,425 L387,426 L391,437 L391,459 L387,476 L384,482 L381,485 L377,482 L375,478 L372,466 L368,419 L358,419 L330,426 L329,428 L328,427 L332,431 L331,432 L334,438 L335,450 L334,451 L333,463 L330,473 L326,481 L321,486 L317,483 L315,479 L314,469 L313,468 L311,428 L309,423 L303,418 L300,419 L298,417 L281,419 L269,423 L263,426 L261,429 L260,428 L257,431 L258,432 L259,431 L260,433 L261,432 L267,438 L270,444 L273,456 L274,466 L276,467 L275,473 L277,483 L279,484 L278,488 L280,489 L279,492 L280,495 L282,496 L281,498 L284,506 L287,511 L295,519 L301,522 L303,521 L304,523 L314,523 L322,520 L335,507 L343,491 L352,511 L356,514 L355,515 L359,519 L365,522 L366,521 L367,523 L378,523 L384,521 L394,513 L400,505 L410,485 L418,460 L418,455 L421,442 L422,420 Z M420,479 L420,493 L422,496 L421,497 L422,502 L424,503 L423,505 L426,508 L425,509 L428,511 L427,512 L433,518 L444,523 L455,523 L465,519 L477,509 L483,500 L486,513 L491,519 L501,523 L514,522 L524,517 L531,510 L537,499 L542,511 L546,516 L552,520 L558,522 L569,523 L580,520 L587,516 L595,508 L596,506 L595,505 L597,504 L598,500 L600,499 L607,510 L615,517 L622,521 L624,520 L625,522 L631,524 L651,524 L666,518 L674,511 L682,497 L684,491 L683,487 L685,485 L685,480 L683,483 L682,482 L673,490 L660,495 L648,495 L643,493 L637,488 L633,481 L632,476 L632,462 L635,450 L638,444 L644,438 L648,437 L653,441 L653,453 L649,462 L649,464 L651,463 L652,465 L665,466 L674,463 L678,459 L681,450 L679,438 L677,434 L670,427 L663,423 L655,421 L639,421 L625,425 L611,435 L602,448 L599,456 L600,457 L598,459 L597,468 L596,469 L597,492 L594,495 L588,498 L579,498 L574,494 L572,488 L573,451 L574,450 L594,450 L593,446 L595,445 L595,428 L576,428 L575,427 L575,414 L571,409 L566,407 L550,407 L546,409 L542,413 L540,427 L539,428 L528,428 L528,433 L527,434 L527,446 L528,448 L527,450 L538,450 L539,451 L538,470 L537,471 L537,490 L529,498 L521,499 L517,495 L516,492 L516,471 L517,470 L519,432 L508,426 L498,423 L471,422 L459,425 L443,434 L435,442 L429,451 L423,464 Z M483,440 L485,442 L484,443 L484,457 L483,458 L484,468 L482,469 L480,481 L477,487 L473,491 L469,493 L466,493 L461,490 L458,484 L457,473 L458,472 L459,462 L463,452 L471,443 L475,441 Z M676,392 L673,395 L675,397 L678,397 L683,400 L687,405 L690,421 L689,489 L688,490 L688,498 L686,508 L683,515 L684,516 L682,517 L683,518 L681,521 L680,520 L681,521 L680,523 L679,522 L682,524 L687,524 L688,523 L707,522 L708,521 L730,522 L725,509 L725,500 L724,499 L725,478 L727,469 L732,459 L739,453 L745,454 L748,460 L748,472 L747,473 L747,484 L746,485 L746,506 L750,517 L756,523 L763,526 L769,526 L770,527 L780,526 L795,520 L806,511 L815,494 L814,490 L815,487 L814,486 L812,488 L811,487 L810,488 L811,489 L797,500 L788,501 L784,497 L783,485 L784,484 L786,446 L785,445 L784,435 L782,431 L777,426 L766,422 L753,423 L742,428 L737,432 L725,446 L724,445 L724,434 L725,433 L725,420 L726,419 L726,407 L727,406 L727,386 L725,382 L722,380 L717,379 L705,380 L692,384 Z M521,322 L522,324 L531,329 L530,330 L533,336 L533,371 L532,372 L532,377 L528,388 L522,396 L543,394 L544,393 L572,393 L574,394 L574,391 L568,385 L565,377 L565,353 L566,348 L570,341 L576,337 L581,337 L586,342 L585,380 L589,391 L594,396 L606,400 L620,399 L626,397 L634,392 L639,386 L638,385 L641,383 L640,381 L641,380 L642,381 L641,378 L642,377 L643,378 L642,377 L643,372 L641,373 L642,374 L640,376 L639,375 L631,380 L626,380 L621,376 L620,372 L621,346 L622,345 L621,329 L618,322 L610,315 L604,313 L589,313 L579,317 L565,330 L563,324 L563,316 L561,313 L548,313 L547,314 L537,315 L525,319 Z M446,318 L441,321 L431,331 L427,338 L424,347 L424,366 L426,367 L425,369 L427,375 L432,383 L441,392 L446,395 L462,400 L475,401 L476,400 L489,399 L506,391 L518,378 L523,364 L522,342 L515,329 L505,320 L495,315 L482,312 L465,312 L456,314 Z M471,330 L478,330 L482,332 L487,337 L491,349 L490,370 L486,378 L479,383 L470,383 L465,380 L461,375 L458,366 L457,355 L460,340 L468,331 Z M1053,84 L1048,75 L1040,66 L1030,59 L1020,54 L1007,50 L994,49 L993,48 L970,49 L948,55 L929,66 L912,83 L905,93 L906,94 L904,95 L898,109 L896,110 L886,86 L877,73 L866,63 L852,55 L828,49 L802,49 L786,52 L773,57 L772,59 L782,69 L791,81 L802,99 L808,112 L812,116 L811,117 L818,131 L820,132 L819,133 L822,136 L821,137 L824,140 L823,141 L826,144 L825,145 L827,146 L826,147 L831,155 L841,177 L844,179 L843,181 L848,190 L847,196 L841,205 L842,206 L839,208 L834,216 L819,231 L806,239 L799,241 L793,241 L787,238 L782,232 L778,212 L780,151 L781,150 L781,123 L780,122 L780,109 L779,108 L778,95 L776,87 L770,74 L761,64 L752,59 L744,57 L722,57 L707,61 L695,67 L688,74 L689,75 L686,77 L688,79 L689,78 L696,88 L698,89 L697,90 L701,99 L702,109 L703,110 L703,139 L702,140 L702,150 L701,151 L699,174 L695,191 L696,193 L694,195 L692,205 L685,220 L679,226 L675,228 L670,227 L666,223 L663,216 L663,211 L662,210 L663,181 L664,180 L665,165 L666,164 L666,158 L667,157 L667,151 L668,150 L668,144 L669,143 L669,137 L672,122 L672,115 L673,114 L673,105 L674,104 L674,83 L671,72 L668,67 L661,61 L654,58 L644,57 L643,56 L624,57 L600,64 L585,72 L576,81 L586,91 L585,92 L587,95 L590,107 L590,141 L589,142 L589,153 L588,154 L588,163 L587,164 L588,171 L586,173 L585,189 L583,198 L584,205 L582,207 L581,231 L580,232 L581,253 L582,254 L582,259 L584,260 L583,261 L584,266 L586,267 L585,269 L593,284 L603,294 L612,300 L628,306 L648,308 L668,304 L677,300 L687,293 L698,282 L702,276 L701,275 L704,273 L706,269 L705,268 L707,267 L709,263 L708,262 L712,258 L715,267 L722,279 L734,292 L742,297 L743,296 L744,298 L752,301 L754,300 L756,302 L760,301 L761,303 L766,302 L781,303 L804,298 L828,287 L852,270 L874,249 L879,258 L881,265 L883,266 L882,267 L884,268 L883,270 L884,273 L886,274 L885,275 L886,278 L888,279 L887,281 L888,280 L889,281 L888,283 L890,284 L889,286 L892,289 L891,291 L902,317 L904,321 L906,322 L905,323 L911,335 L928,361 L943,376 L944,375 L947,379 L960,387 L974,392 L977,391 L978,393 L982,392 L983,394 L1004,394 L1020,390 L1038,380 L1052,366 L1051,365 L1056,360 L1064,344 L1069,328 L1070,315 L1071,314 L1070,285 L1065,267 L1056,251 L1047,242 L1041,239 L1036,239 L1035,241 L1038,247 L1038,253 L1039,254 L1038,262 L1035,270 L1029,277 L1022,281 L1011,282 L1004,280 L993,274 L973,255 L960,238 L937,201 L925,177 L925,173 L930,162 L937,151 L952,135 L967,126 L977,123 L996,124 L1001,127 L1007,134 L1008,142 L1006,147 L1001,152 L993,155 L988,155 L987,154 L983,155 L982,153 L979,154 L980,157 L982,158 L981,159 L988,166 L992,168 L993,167 L994,169 L997,168 L998,170 L1013,170 L1023,167 L1035,160 L1045,150 L1049,144 L1056,127 L1058,107 L1057,106 L1057,97 L1055,89 L1052,86 Z M4,87 L3,91 L4,93 L2,94 L1,107 L0,108 L1,126 L2,130 L3,129 L4,130 L3,134 L5,140 L7,141 L6,142 L8,143 L7,144 L9,145 L8,146 L11,151 L23,163 L43,173 L46,172 L47,174 L50,173 L52,175 L59,175 L60,176 L71,176 L74,174 L81,175 L100,170 L102,171 L100,176 L101,179 L99,181 L100,184 L98,185 L98,190 L92,216 L92,222 L91,223 L92,229 L90,230 L88,258 L87,259 L87,281 L88,282 L87,305 L88,306 L88,314 L90,316 L89,320 L91,322 L90,326 L91,325 L92,326 L91,330 L96,345 L98,346 L97,347 L98,350 L100,351 L99,352 L101,353 L100,354 L102,355 L101,356 L103,357 L102,358 L105,360 L104,361 L106,362 L105,363 L111,371 L123,382 L140,391 L144,392 L146,391 L147,393 L152,393 L153,394 L175,394 L197,388 L209,382 L211,379 L212,380 L229,364 L242,343 L252,316 L256,300 L260,273 L261,272 L262,258 L263,257 L265,224 L266,223 L266,181 L263,165 L257,152 L253,147 L244,142 L235,141 L237,142 L234,144 L235,143 L236,144 L235,146 L236,145 L237,146 L236,148 L238,152 L239,172 L238,173 L236,189 L232,201 L226,212 L217,221 L212,224 L203,225 L195,220 L189,207 L188,193 L187,192 L187,173 L188,172 L188,153 L187,152 L189,148 L189,137 L207,129 L210,126 L211,127 L212,125 L213,126 L244,113 L273,105 L278,105 L279,104 L281,110 L281,124 L282,125 L281,217 L280,218 L278,253 L277,254 L277,262 L275,271 L276,278 L274,279 L272,297 L268,317 L264,329 L265,332 L263,333 L264,335 L262,337 L263,339 L261,340 L262,341 L260,343 L261,346 L260,347 L259,346 L260,349 L259,350 L258,349 L259,351 L257,352 L257,354 L267,348 L268,346 L269,347 L290,336 L289,335 L290,334 L292,335 L293,333 L294,334 L318,323 L332,319 L333,317 L335,318 L342,315 L375,307 L363,282 L357,260 L356,248 L355,247 L355,236 L354,235 L354,213 L353,210 L355,205 L356,182 L357,181 L358,168 L362,153 L362,149 L371,124 L375,118 L382,113 L387,113 L391,117 L392,130 L387,156 L388,159 L386,161 L386,165 L384,170 L384,175 L380,191 L380,197 L377,212 L376,260 L378,264 L377,268 L378,273 L380,274 L379,278 L381,285 L387,298 L391,301 L390,302 L391,303 L406,300 L412,300 L411,299 L412,298 L419,299 L420,298 L444,296 L445,295 L479,293 L468,278 L462,264 L460,263 L461,262 L458,255 L453,230 L453,197 L454,196 L454,186 L455,185 L457,165 L464,135 L471,119 L477,113 L480,112 L485,113 L489,119 L490,122 L490,141 L489,142 L489,149 L488,150 L485,173 L483,179 L484,183 L482,185 L482,190 L480,197 L478,223 L477,224 L477,242 L478,243 L478,253 L481,267 L483,268 L482,270 L483,269 L484,270 L483,273 L485,274 L484,275 L486,276 L485,277 L488,280 L487,281 L489,285 L498,294 L514,295 L515,296 L523,295 L524,297 L533,296 L534,298 L542,297 L543,298 L542,299 L555,299 L556,300 L568,300 L569,299 L573,301 L588,301 L589,300 L592,301 L583,293 L575,283 L566,266 L562,253 L560,235 L559,234 L560,191 L561,190 L561,182 L562,181 L563,166 L564,165 L566,143 L567,142 L567,131 L568,130 L568,106 L567,105 L566,92 L562,79 L558,72 L555,70 L556,69 L546,59 L535,53 L523,50 L511,50 L508,52 L506,51 L490,56 L483,60 L463,76 L455,63 L444,54 L433,50 L427,51 L426,49 L412,50 L397,54 L385,60 L372,69 L358,83 L354,66 L350,60 L342,53 L336,50 L323,47 L303,47 L302,48 L287,49 L268,54 L264,54 L232,64 L193,74 L192,73 L192,67 L196,50 L201,39 L213,26 L212,25 L215,23 L216,14 L212,8 L199,2 L189,1 L188,0 L157,0 L138,4 L117,13 L104,21 L91,34 L88,40 L88,46 L90,48 L89,49 L91,51 L92,50 L93,52 L97,54 L100,54 L105,57 L109,63 L111,71 L111,83 L109,85 L108,84 L101,84 L85,81 L66,73 L53,62 L47,50 L44,50 L43,52 L42,51 L37,52 L23,60 L14,69 L6,82 L7,84 Z"/>
  </g>
</svg>